<svg width="200" height="200" viewBox="0 0 200 200" fill="none" xmlns="http://www.w3.org/2000/svg">
<path d="M155.36 30.5808C155.36 21.684 145.729 16.1236 138.024 20.572L7.79807 95.758C-2.442 101.67 1.75248 117.324 13.5767 117.324L87.0489 117.324C91.1779 117.324 94.9933 119.527 97.0578 123.103L133.794 186.731C139.706 196.971 155.36 192.777 155.36 180.953V30.5808Z" fill="black"/>
<path d="M60.9759 179.958C53.2711 184.406 43.6401 178.845 43.6401 169.949L43.6401 19.5767C43.6401 7.75245 59.2941 3.55802 65.2062 13.7981L101.942 77.4269C104.007 81.0027 107.822 83.2055 111.951 83.2055H185.423C197.248 83.2055 201.442 98.8594 191.202 104.772L60.9759 179.958Z" fill="url(#paint0_linear_31_354)"/>
<path d="M155.36 30.5808C155.36 21.684 145.729 16.1236 138.024 20.572L7.79807 95.758C-2.442 101.67 1.75248 117.324 13.5767 117.324L87.0489 117.324C91.1779 117.324 94.9933 119.527 97.0578 123.103L133.794 186.731C139.706 196.971 155.36 192.777 155.36 180.953V30.5808Z" fill="url(#paint1_linear_31_354)"/>
<defs>
<linearGradient id="paint0_linear_31_354" x1="182.327" y1="163.276" x2="-2.58866" y2="56.5152" gradientUnits="userSpaceOnUse">
<stop stop-color="#D9D9D9"/>
<stop offset="0.5" stop-color="#0070C0"/>
<stop offset="1" stop-color="#D9D9D9"/>
</linearGradient>
<linearGradient id="paint1_linear_31_354" x1="198.146" y1="149.977" x2="8.24744" y2="55.0278" gradientUnits="userSpaceOnUse">
<stop stop-color="#00B0F0"/>
<stop offset="0.5" stop-color="#0070C0"/>
<stop offset="1" stop-color="#00B0F0"/>
</linearGradient>
</defs>
</svg>
